<svg width="20" height="20" viewBox="0 0 20 20" fill="none" xmlns="http://www.w3.org/2000/svg">
<path d="M0 4.16667L0 15.8333C0 18.1342 1.86583 20 4.16667 20H15.8333C18.1342 20 20 18.1342 20 15.8333V4.16667C20 1.865 18.1342 4.76837e-07 15.8333 4.76837e-07H4.16667C1.86583 4.76837e-07 0 1.865 0 4.16667ZM14.1633 3.95833L14.1633 5.73667C14.1633 6.74083 13.5908 6.91083 12.7642 7.7375C12.0167 8.485 12.59 8.9 13.6542 8.8825C13.9367 8.8775 14.1633 9.01667 14.1633 9.35417C14.1633 10.4075 14.3117 11.9208 12.6583 13.4525C10.9642 15.0217 7.56583 16.6667 7.23083 16.6667C7.03333 16.6667 6.94417 16.5033 6.94417 16.23V14.4217C6.94417 13.9433 7.18083 13.9025 7.485 13.7692C8.7525 13.2133 11.2967 11.8817 9.87667 11.5275C9.06167 11.3242 7.1725 11.2408 7.01 12.1133C6.91833 12.6083 6.38833 11.7367 6.38833 10.4733C6.38833 10.1592 6.4225 9.81833 6.5025 9.46917C6.65167 8.82833 6.93833 8.82667 7.3575 8.835C8.94333 8.8675 10.0108 9.05917 10.28 8.64083C10.5383 8.24167 8.84917 7.19167 7.54583 6.63833C7.185 6.48583 6.94417 6.45583 6.94417 6.02667V3.815C6.94417 2.65667 8.60833 3.96667 9.90833 4.9675C10.9542 5.77417 10.975 5.73083 11.845 4.79333C12.465 4.12417 13.3117 3.335 13.7917 3.335C14.0183 3.33333 14.1633 3.51 14.1633 3.95833V3.95833Z" fill="black"/>
</svg>
