<?xml version="1.0" standalone="no"?>
<!DOCTYPE svg PUBLIC "-//W3C//DTD SVG 20010904//EN"
 "http://www.w3.org/TR/2001/REC-SVG-20010904/DTD/svg10.dtd">
<svg version="1.0" xmlns="http://www.w3.org/2000/svg"
 width="700.000000pt" height="700.000000pt" viewBox="0 0 700.000000 700.000000"
 preserveAspectRatio="xMidYMid meet">
<metadata>
Created by potrace 1.14, written by Peter Selinger 2001-2017
</metadata>
<g transform="translate(0.000000,700.000000) scale(0.100000,-0.100000)"
fill="#000000" stroke="none">
<path d="M3278 6995 c-1 -1 -42 -5 -89 -9 -47 -4 -95 -8 -105 -10 -10 -2 -48
-7 -84 -12 -36 -4 -67 -8 -70 -9 -3 -1 -25 -5 -50 -9 -25 -4 -101 -21 -170
-38 -69 -16 -134 -31 -146 -34 -12 -2 -68 -19 -125 -38 -851 -280 -1537 -835
-1979 -1601 -47 -81 -170 -327 -170 -339 0 -3 -11 -29 -24 -58 -43 -96 -112
-298 -142 -413 -4 -16 -8 -34 -10 -40 -5 -16 -25 -98 -30 -120 -39 -194 -47
-242 -60 -350 -26 -230 -26 -667 1 -826 2 -13 6 -46 9 -74 9 -78 22 -152 51
-285 21 -96 91 -339 114 -395 5 -11 25 -65 46 -120 64 -170 213 -461 314 -615
214 -324 467 -601 775 -848 89 -72 367 -262 382 -262 4 0 15 -6 23 -14 29 -26
335 -175 471 -229 114 -46 338 -120 398 -132 9 -2 55 -12 102 -24 109 -26 200
-43 299 -57 25 -3 57 -8 71 -10 192 -30 697 -24 907 10 21 4 54 9 73 11 19 3
46 7 60 10 14 3 41 8 60 11 19 4 71 15 115 26 44 10 87 21 96 23 80 18 301 92
434 145 99 39 340 157 419 205 32 19 62 35 67 35 5 0 9 5 9 10 0 6 5 10 10 10
15 0 220 141 330 227 152 118 324 280 450 422 36 41 70 79 76 85 6 6 48 61 94
121 150 197 277 405 383 628 26 53 47 99 47 102 0 2 11 28 24 57 57 127 151
421 182 573 17 81 54 301 59 350 4 33 9 71 11 85 9 47 11 525 4 605 -15 157
-21 210 -25 225 -2 8 -7 35 -10 60 -17 129 -80 384 -136 552 -230 685 -678
1297 -1254 1712 -66 47 -124 90 -130 94 -79 62 -414 240 -590 314 -236 98
-581 196 -785 223 -19 3 -46 7 -60 10 -13 2 -52 7 -86 11 -33 3 -74 8 -90 10
-33 5 -540 14 -546 9z"/>
</g>
</svg>
